<mxfile host="app.diagrams.net" modified="2023-11-04T21:39:39.254Z" agent="Mozilla/5.0 (X11; CrOS x86_64 14541.0.0) AppleWebKit/537.36 (KHTML, like Gecko) Chrome/118.0.0.0 Safari/537.36" etag="t9KXmpn2Y40smMdz2pEC" version="22.0.8" type="device">
  <diagram name="Pagina-1" id="pfF5WeYaZpBrfiGlMpMh">
    <mxGraphModel dx="1100" dy="589" grid="1" gridSize="10" guides="1" tooltips="1" connect="1" arrows="1" fold="1" page="0" pageScale="1" pageWidth="827" pageHeight="1169" math="0" shadow="0">
      <root>
        <mxCell id="0" />
        <mxCell id="1" parent="0" />
        <mxCell id="Vt7vVx8OtAMDY166T32y-6" style="rounded=0;orthogonalLoop=1;jettySize=auto;html=1;exitX=0.5;exitY=0;exitDx=0;exitDy=0;entryX=0.5;entryY=0;entryDx=0;entryDy=0;endArrow=none;endFill=0;dashed=1;dashPattern=12 12;" edge="1" parent="1" source="Vt7vVx8OtAMDY166T32y-2" target="Vt7vVx8OtAMDY166T32y-5">
          <mxGeometry relative="1" as="geometry" />
        </mxCell>
        <mxCell id="Vt7vVx8OtAMDY166T32y-7" style="rounded=0;orthogonalLoop=1;jettySize=auto;html=1;exitX=0.5;exitY=1;exitDx=0;exitDy=0;entryX=0.5;entryY=1;entryDx=0;entryDy=0;endArrow=none;endFill=0;dashed=1;dashPattern=12 12;strokeColor=default;" edge="1" parent="1" source="Vt7vVx8OtAMDY166T32y-2" target="Vt7vVx8OtAMDY166T32y-5">
          <mxGeometry relative="1" as="geometry" />
        </mxCell>
        <mxCell id="Vt7vVx8OtAMDY166T32y-2" value="Human" style="ellipse;whiteSpace=wrap;html=1;aspect=fixed;" vertex="1" parent="1">
          <mxGeometry x="40" y="200" width="80" height="80" as="geometry" />
        </mxCell>
        <mxCell id="Vt7vVx8OtAMDY166T32y-12" style="rounded=0;orthogonalLoop=1;jettySize=auto;html=1;exitX=0.5;exitY=0;exitDx=0;exitDy=0;entryX=0;entryY=0;entryDx=0;entryDy=0;endArrow=none;endFill=0;" edge="1" parent="1" source="Vt7vVx8OtAMDY166T32y-5" target="Vt7vVx8OtAMDY166T32y-9">
          <mxGeometry relative="1" as="geometry" />
        </mxCell>
        <mxCell id="Vt7vVx8OtAMDY166T32y-13" style="rounded=0;orthogonalLoop=1;jettySize=auto;html=1;exitX=0.5;exitY=1;exitDx=0;exitDy=0;entryX=0;entryY=1;entryDx=0;entryDy=0;endArrow=none;endFill=0;" edge="1" parent="1" source="Vt7vVx8OtAMDY166T32y-5" target="Vt7vVx8OtAMDY166T32y-14">
          <mxGeometry relative="1" as="geometry" />
        </mxCell>
        <mxCell id="Vt7vVx8OtAMDY166T32y-5" value="Digital Twin" style="ellipse;whiteSpace=wrap;html=1;aspect=fixed;" vertex="1" parent="1">
          <mxGeometry x="200" y="200" width="80" height="80" as="geometry" />
        </mxCell>
        <mxCell id="Vt7vVx8OtAMDY166T32y-9" value="Web2&lt;br&gt;(static HTML)" style="rounded=0;whiteSpace=wrap;html=1;" vertex="1" parent="1">
          <mxGeometry x="360" y="120" width="120" height="60" as="geometry" />
        </mxCell>
        <mxCell id="Vt7vVx8OtAMDY166T32y-10" value="ActivityPub" style="rounded=0;whiteSpace=wrap;html=1;" vertex="1" parent="1">
          <mxGeometry x="360" y="180" width="120" height="60" as="geometry" />
        </mxCell>
        <mxCell id="Vt7vVx8OtAMDY166T32y-11" value="Bluesky" style="rounded=0;whiteSpace=wrap;html=1;" vertex="1" parent="1">
          <mxGeometry x="360" y="240" width="120" height="60" as="geometry" />
        </mxCell>
        <mxCell id="Vt7vVx8OtAMDY166T32y-14" value="eMail" style="rounded=0;whiteSpace=wrap;html=1;" vertex="1" parent="1">
          <mxGeometry x="360" y="300" width="120" height="60" as="geometry" />
        </mxCell>
        <mxCell id="Vt7vVx8OtAMDY166T32y-15" value="&lt;font style=&quot;font-size: 30px;&quot;&gt;Interfaces&lt;/font&gt;" style="text;html=1;strokeColor=none;fillColor=none;align=center;verticalAlign=middle;whiteSpace=wrap;rounded=0;" vertex="1" parent="1">
          <mxGeometry x="325" y="60" width="190" height="50" as="geometry" />
        </mxCell>
      </root>
    </mxGraphModel>
  </diagram>
</mxfile>
